<?xml version="1.0" encoding="utf-8"?>
<!-- Generator: Adobe Illustrator 19.0.0, SVG Export Plug-In . SVG Version: 6.00 Build 0)  -->
<svg version="1.1" id="Layer_1" xmlns="http://www.w3.org/2000/svg" xmlns:xlink="http://www.w3.org/1999/xlink" x="0px" y="0px"
	 viewBox="-487 641 75 75.2" style="enable-background:new -487 641 75 75.2;" xml:space="preserve">
<style type="text/css">
	.st0{fill:#F9C04E;}
</style>
<path class="st0" d="M-422.3,688.3c1.8-4.1,2.8-8.7,2.8-13.5c0-18.6-15.1-33.8-33.8-33.8c-18.6,0-33.8,15.1-33.8,33.8
	s15.1,33.8,33.8,33.8c4.7,0,9.1-0.9,13.2-2.7l10.4,10.4l17.7-17.7L-422.3,688.3z M-458.5,663.5c1.6-0.7,3.4-1.2,5.3-1.2
	c2.7,0,5.2,0.9,7.3,2.4c1.1,0.8,2.1,1.8,2.9,2.9c1.5,2.1,2.4,4.6,2.4,7.3c0,6.9-5.6,12.5-12.5,12.5s-12.5-5.6-12.5-12.5
	c0-1.9,0.4-3.7,1.2-5.3C-463.3,666.9-461.2,664.7-458.5,663.5z"/>
</svg>
