<?xml version="1.0" encoding="utf-8"?>
<!-- Generator: Adobe Illustrator 19.0.0, SVG Export Plug-In . SVG Version: 6.00 Build 0)  -->
<svg version="1.1" id="Layer_1" xmlns="http://www.w3.org/2000/svg" xmlns:xlink="http://www.w3.org/1999/xlink" x="0px" y="0px"
	 viewBox="-412.4 589.8 75 75" style="enable-background:new -412.4 589.8 75 75;" xml:space="preserve">
<style type="text/css">
	.st0{fill:#FFCA50;}
</style>
<path class="st0" d="M-337.4,627.3c0-20.7-16.8-37.5-37.5-37.5s-37.5,16.8-37.5,37.5s16.8,37.5,37.5,37.5c4.4,0,12.5,0,12.5,0h25
	v-25C-337.4,639.8-337.4,631.7-337.4,627.3z M-362.4,641.2c-3.3,3-7.7,4.8-12.5,4.8c-10.4,0-18.8-8.4-18.8-18.8s8.4-18.8,18.8-18.8
	s18.8,8.4,18.8,18.8c0,4.8-1.8,9.2-4.8,12.5C-361.4,640.3-361.9,640.8-362.4,641.2z"/>
</svg>
