<?xml version="1.0" encoding="utf-8"?>
<!-- Generator: Adobe Illustrator 19.0.0, SVG Export Plug-In . SVG Version: 6.00 Build 0)  -->
<svg version="1.1" id="Layer_1" xmlns="http://www.w3.org/2000/svg" xmlns:xlink="http://www.w3.org/1999/xlink" x="0px" y="0px"
	 viewBox="0 0 675 125" style="enable-background:new 0 0 675 125;" xml:space="preserve">
<path id="XMLID_4365_" style="opacity:0.2;fill:#FCD829;" d="M212.5,87.5c-3.2,0-34,0-50,0c-16,0-46.8,0-50,0
	c-6.9,0-12.5,5.6-12.5,12.5s5.6,12.5,12.5,12.5c3.2,0,34,0,50,0c16,0,46.8,0,50,0c6.9,0,12.5-5.6,12.5-12.5S219.4,87.5,212.5,87.5z"
	/>
<path id="XMLID_4366_" style="opacity:0.4;fill:#FCD829;" d="M387.5,87.5c-2.8,0-26.2,0-37.5,0c-11.3,0-34.7,0-37.5,0
	c-6.9,0-12.5,5.6-12.5,12.5c0,6.9,5.6,12.5,12.5,12.5c2.8,0,26.2,0,37.5,0c11.3,0,34.7,0,37.5,0c6.9,0,12.5-5.6,12.5-12.5
	S394.4,87.5,387.5,87.5z"/>
<circle id="XMLID_4367_" style="fill:#FCD829;" cx="425" cy="100" r="12.5"/>
<path id="XMLID_4368_" style="opacity:0.8;fill:#FCD829;" d="M275,87.5c-1.5,0-9.6,0-12.5,0c-2.9,0-11,0-12.5,0
	c-6.9,0-12.5,5.6-12.5,12.5s5.6,12.5,12.5,12.5c1.5,0,9.6,0,12.5,0c2.9,0,11,0,12.5,0c6.9,0,12.5-5.6,12.5-12.5S281.9,87.5,275,87.5
	z"/>
<path id="XMLID_4369_" style="opacity:0.6;fill:#FCD829;" d="M75,87.5c-2.3,0-18.2,0-25,0c-6.8,0-22.7,0-25,0
	c-6.9,0-12.5,5.6-12.5,12.5s5.6,12.5,12.5,12.5c2.3,0,18.2,0,25,0c6.8,0,22.7,0,25,0c6.9,0,12.5-5.6,12.5-12.5S81.9,87.5,75,87.5z"
	/>
<path id="XMLID_4378_" style="opacity:0.2;fill:#FCD829;" d="M650,87.5c-3.2,0-34,0-50,0c-16,0-46.8,0-50,0
	c-6.9,0-12.5,5.6-12.5,12.5s5.6,12.5,12.5,12.5c3.2,0,34,0,50,0c16,0,46.8,0,50,0c6.9,0,12.5-5.6,12.5-12.5S656.9,87.5,650,87.5z"/>
<path id="XMLID_4374_" style="opacity:0.6;fill:#FCD829;" d="M512.5,87.5c-2.3,0-18.2,0-25,0c-6.8,0-22.7,0-25,0
	c-6.9,0-12.5,5.6-12.5,12.5s5.6,12.5,12.5,12.5c2.3,0,18.2,0,25,0c6.8,0,22.7,0,25,0c6.9,0,12.5-5.6,12.5-12.5
	S519.4,87.5,512.5,87.5z"/>
<path id="XMLID_4373_" style="opacity:0.2;fill:#FCD829;" d="M125,50c-3.2,0-34,0-50,0c-16,0-46.8,0-50,0c-6.9,0-12.5,5.6-12.5,12.5
	S18.1,75,25,75c3.2,0,34,0,50,0c16,0,46.8,0,50,0c6.9,0,12.5-5.6,12.5-12.5S131.9,50,125,50z"/>
<path id="XMLID_4372_" style="opacity:0.4;fill:#FCD829;" d="M300,50c-2.8,0-26.2,0-37.5,0c-11.3,0-34.7,0-37.5,0
	c-6.9,0-12.5,5.6-12.5,12.5c0,6.9,5.6,12.5,12.5,12.5c2.8,0,26.2,0,37.5,0c11.3,0,34.7,0,37.5,0c6.9,0,12.5-5.6,12.5-12.5
	S306.9,50,300,50z"/>
<circle id="XMLID_4371_" style="fill:#FCD829;" cx="337.5" cy="62.5" r="12.5"/>
<path id="XMLID_4370_" style="opacity:0.8;fill:#FCD829;" d="M187.5,50c-1.5,0-9.6,0-12.5,0c-2.9,0-11,0-12.5,0
	c-6.9,0-12.5,5.6-12.5,12.5S155.6,75,162.5,75c1.5,0,9.6,0,12.5,0c2.9,0,11,0,12.5,0c6.9,0,12.5-5.6,12.5-12.5S194.4,50,187.5,50z"
	/>
<path id="XMLID_4363_" style="opacity:0.2;fill:#FCD829;" d="M562.5,50c-3.2,0-34,0-50,0c-16,0-46.8,0-50,0
	c-6.9,0-12.5,5.6-12.5,12.5S455.6,75,462.5,75c3.2,0,34,0,50,0c16,0,46.8,0,50,0c6.9,0,12.5-5.6,12.5-12.5S569.4,50,562.5,50z"/>
<path id="XMLID_4360_" style="opacity:0.8;fill:#FCD829;" d="M625,50c-1.5,0-9.6,0-12.5,0c-2.9,0-11,0-12.5,0
	c-6.9,0-12.5,5.6-12.5,12.5S593.1,75,600,75c1.5,0,9.6,0,12.5,0c2.9,0,11,0,12.5,0c6.9,0,12.5-5.6,12.5-12.5S631.9,50,625,50z"/>
<path id="XMLID_4359_" style="opacity:0.6;fill:#FCD829;" d="M425,50c-2.3,0-18.2,0-25,0c-6.8,0-22.7,0-25,0
	c-6.9,0-12.5,5.6-12.5,12.5S368.1,75,375,75c2.3,0,18.2,0,25,0c6.8,0,22.7,0,25,0c6.9,0,12.5-5.6,12.5-12.5S431.9,50,425,50z"/>
<path id="XMLID_4392_" style="opacity:0.4;fill:#FCD829;" d="M162.5,12.5c-2.8,0-26.2,0-37.5,0c-11.3,0-34.7,0-37.5,0
	C80.6,12.5,75,18.1,75,25c0,6.9,5.6,12.5,12.5,12.5c2.8,0,26.2,0,37.5,0c11.3,0,34.7,0,37.5,0c6.9,0,12.5-5.6,12.5-12.5
	S169.4,12.5,162.5,12.5z"/>
<circle id="XMLID_4391_" style="fill:#FCD829;" cx="200" cy="25" r="12.5"/>
<path id="XMLID_4390_" style="opacity:0.8;fill:#FCD829;" d="M50,12.5c-1.5,0-9.6,0-12.5,0c-2.9,0-11,0-12.5,0
	c-6.9,0-12.5,5.6-12.5,12.5S18.1,37.5,25,37.5c1.5,0,9.6,0,12.5,0c2.9,0,11,0,12.5,0c6.9,0,12.5-5.6,12.5-12.5S56.9,12.5,50,12.5z"
	/>
<path id="XMLID_4388_" style="opacity:0.2;fill:#FCD829;" d="M425,12.5c-3.2,0-34,0-50,0c-16,0-46.8,0-50,0
	c-6.9,0-12.5,5.6-12.5,12.5s5.6,12.5,12.5,12.5c3.2,0,34,0,50,0c16,0,46.8,0,50,0c6.9,0,12.5-5.6,12.5-12.5S431.9,12.5,425,12.5z"/>
<path id="XMLID_4383_" style="opacity:0.4;fill:#FCD829;" d="M600,12.5c-2.8,0-26.2,0-37.5,0c-11.3,0-34.7,0-37.5,0
	c-6.9,0-12.5,5.6-12.5,12.5c0,6.9,5.6,12.5,12.5,12.5c2.8,0,26.2,0,37.5,0c11.3,0,34.7,0,37.5,0c6.9,0,12.5-5.6,12.5-12.5
	S606.9,12.5,600,12.5z"/>
<circle id="XMLID_4380_" style="fill:#FCD829;" cx="637.5" cy="25" r="12.5"/>
<path id="XMLID_4379_" style="opacity:0.8;fill:#FCD829;" d="M487.5,12.5c-1.5,0-9.6,0-12.5,0c-2.9,0-11,0-12.5,0
	c-6.9,0-12.5,5.6-12.5,12.5s5.6,12.5,12.5,12.5c1.5,0,9.6,0,12.5,0c2.9,0,11,0,12.5,0c6.9,0,12.5-5.6,12.5-12.5
	S494.4,12.5,487.5,12.5z"/>
<path id="XMLID_4364_" style="opacity:0.6;fill:#FCD829;" d="M287.5,12.5c-2.3,0-18.2,0-25,0c-6.8,0-22.7,0-25,0
	c-6.9,0-12.5,5.6-12.5,12.5s5.6,12.5,12.5,12.5c2.3,0,18.2,0,25,0c6.8,0,22.7,0,25,0c6.9,0,12.5-5.6,12.5-12.5
	S294.4,12.5,287.5,12.5z"/>
</svg>
