<?xml version="1.0" encoding="utf-8"?>
<!-- Generator: Adobe Illustrator 19.0.0, SVG Export Plug-In . SVG Version: 6.00 Build 0)  -->
<svg version="1.1" id="Layer_1" xmlns="http://www.w3.org/2000/svg" xmlns:xlink="http://www.w3.org/1999/xlink" x="0px" y="0px"
	 viewBox="0 0 800 800" enable-background="new 0 0 800 800" xml:space="preserve">
<path id="XMLID_21588_" fill="none" stroke="#FFE7B6" stroke-width="3" stroke-miterlimit="10" d="M223.5,264.7
	c0-13-10.5-23.5-23.5-23.5s-23.5,10.5-23.5,23.5c0,4.5-11.8,17-11.8,23.5c0,6.5,5.3,11.8,11.8,11.8c3.4,0,6.5-1.5,8.6-3.8
	c4.5,0.5,9.6,0.8,14.9,0.8s10.4-0.3,14.9-0.8c2.1,2.3,5.2,3.8,8.6,3.8c6.5,0,11.8-5.3,11.8-11.8
	C235.3,281.7,223.5,269.2,223.5,264.7z"/>
<path id="XMLID_21587_" fill="none" stroke="#FFE7B6" stroke-width="3" stroke-miterlimit="10" d="M164.7,288.2
	c0,6.5,5.3,11.8,11.8,11.8c3.4,0,43.7,0,47.1,0c6.5,0,11.8-5.3,11.8-11.8C235.3,281.7,164.7,281.7,164.7,288.2z"/>
<g id="XMLID_21580_">
	
		<rect id="XMLID_21583_" x="105.9" y="264.7" fill="none" stroke="#FFE7B6" stroke-width="3" stroke-miterlimit="10" width="188.2" height="0"/>
	<path id="XMLID_21582_" fill="none" stroke="#FFE7B6" stroke-width="3" stroke-miterlimit="10" d="M305.9,111.8
		c0-6.5-5.3-11.8-11.8-11.8H105.9c-6.5,0-11.8,5.3-11.8,11.8v129.4h211.8V111.8z"/>
	<path id="XMLID_21581_" fill="none" stroke="#FFE7B6" stroke-width="3" stroke-miterlimit="10" d="M305.9,252.9v-11.8H94.1v11.8
		c0,6.5,5.3,11.8,11.8,11.8h188.2C300.6,264.7,305.9,259.4,305.9,252.9z"/>
</g>
<rect id="XMLID_21579_" x="105.9" y="111.8" fill="none" stroke="#FFE7B6" stroke-width="3" stroke-miterlimit="10" width="188.2" height="117.6"/>
<path id="XMLID_21586_" fill="none" stroke="#FFE7B6" stroke-width="3" stroke-miterlimit="10" d="M600,247.4
	c-11.6,0-31.5,36.3-31.5,42.1c0,5.8,4.7,10.5,10.5,10.5c3,0,39,0,42.1,0c5.8,0,10.5-4.7,10.5-10.5
	C631.5,283.7,611.6,247.4,600,247.4z"/>
<path id="XMLID_21585_" fill="none" stroke="#FFE7B6" stroke-width="3" stroke-miterlimit="10" d="M694.6,100H505.4
	c-5.8,0-10.5,4.7-10.5,10.5v147.2c0,5.8,4.7,10.5,10.5,10.5h189.3c5.8,0,10.5-4.7,10.5-10.5V110.5v0v0
	C705.2,104.7,700.4,100,694.6,100z"/>
<rect id="XMLID_21584_" x="505.4" y="110.5" fill="none" stroke="#FFE7B6" stroke-width="3" stroke-miterlimit="10" width="189.3" height="147.2"/>
<path id="XMLID_34_" fill="none" stroke="#FFE7B6" stroke-width="3" stroke-miterlimit="10" d="M287.5,525h-175
	c-6.9,0-12.5,5.6-12.5,12.5v125c0,6.9,5.6,12.5,12.5,12.5h175c6.9,0,12.5-5.6,12.5-12.5v-125C300,530.6,294.4,525,287.5,525z"/>
<rect id="XMLID_33_" x="112.5" y="537.5" fill="none" stroke="#FFE7B6" stroke-width="3" stroke-miterlimit="10" width="175" height="125"/>
<path id="XMLID_32_" fill="none" stroke="#FFE7B6" stroke-width="3" stroke-miterlimit="10" d="M87.5,662.5c0,1.9,0.4,3.7,1.2,5.3
	c0.4,0.8,0.8,1.6,1.4,2.3c2.3,3,5.9,4.9,9.9,4.9c2.9,0,61.8,0,100,0c38.2,0,97.1,0,100,0c4,0,7.6-1.9,9.9-4.9c0.5-0.7,1-1.5,1.4-2.3
	c0.8-1.6,1.2-3.4,1.2-5.3C312.5,655.6,87.5,655.6,87.5,662.5z"/>
<g id="XMLID_30_">
	<path id="XMLID_31_" fill="none" stroke="#FFE7B6" stroke-width="3" stroke-miterlimit="10" d="M237.5,662.5c0-1.8-0.4-3.4-1-4.9
		c-23.5-0.3-49.4-0.3-73,0c-0.6,1.5-1,3.2-1,4.9C162.5,669.4,237.5,669.4,237.5,662.5z"/>
</g>
<path id="XMLID_45_" fill="none" stroke="#FFE7B6" stroke-width="3" stroke-miterlimit="10" d="M625,500h-50c-13.8,0-25,11.2-25,25
	v150c0,13.8,11.2,25,25,25h50c13.8,0,25-11.2,25-25V525C650,511.2,638.8,500,625,500z"/>
<rect id="XMLID_44_" x="550" y="525" fill="none" stroke="#FFE7B6" stroke-width="3" stroke-miterlimit="10" width="100" height="150"/>
<circle id="XMLID_42_" fill="none" stroke="#FFE7B6" stroke-width="3" stroke-miterlimit="10" cx="600" cy="687.5" r="6.2"/>
<path id="XMLID_43_" fill="none" stroke="#FFE7B6" stroke-width="3" stroke-miterlimit="10" d="M621.9,509.3c-1,0-14,0-21.9,0
	c-7.9,0-20.9,0-21.9,0c-1.7,0-3.1,1.4-3.1,3.1s1.4,3.1,3.1,3.1c1,0,14,0,21.9,0c7.9,0,20.9,0,21.9,0c1.7,0,3.1-1.4,3.1-3.1
	S623.6,509.3,621.9,509.3z"/>
</svg>
