<?xml version="1.0" encoding="utf-8"?>
<!-- Generator: Adobe Illustrator 19.0.0, SVG Export Plug-In . SVG Version: 6.00 Build 0)  -->
<svg version="1.1" id="Layer_1" xmlns="http://www.w3.org/2000/svg" xmlns:xlink="http://www.w3.org/1999/xlink" x="0px" y="0px"
	 viewBox="0 0 800 800" enable-background="new 0 0 800 800" xml:space="preserve">
<rect id="XMLID_14_" fill="#FFFFFF" width="400" height="400"/>
<rect id="XMLID_35_" x="400" fill="#FFFFFF" width="400" height="400"/>
<rect id="XMLID_29_" y="400" fill="#FFFFFF" width="400" height="400"/>
<rect id="XMLID_28_" x="400" y="400" fill="#FFFFFF" width="400" height="400"/>
<path id="XMLID_909_" fill="#FCD829" stroke="#FCD829" stroke-miterlimit="10" d="M173.6,587.5c3.5,0,6.6,1.4,8.8,3.7l0,0l0,0
	c1.5,1.5,3.2,2.5,5.1,3.1c4.3,1.4,9.2,0.3,12.6-3.1c0.9-0.9,1.7-2,2.3-3.1c2.4-4.7,1.7-10.6-2.3-14.6c-6.8-6.8-16.2-11-26.5-11
	c-20.7,0-37.5,16.8-37.5,37.5s16.8,37.5,37.5,37.5c10.4,0,19.7-4.2,26.5-11v0c4-4,4.7-9.9,2.3-14.6c-0.6-1.1-1.3-2.1-2.3-3.1
	c-3.4-3.4-8.3-4.4-12.6-3.1c-1.9,0.6-3.6,1.6-5.1,3.1l0,0l0,0c-2.3,2.3-5.4,3.7-8.8,3.7c-6.9,0-12.5-5.6-12.5-12.5
	S166.7,587.5,173.6,587.5z"/>
<path id="XMLID_696_" fill="none" stroke="#FCD829" stroke-width="5" stroke-miterlimit="10" d="M573.6,171.5c3.5,0,6.6,1.4,8.8,3.7
	l0,0l0,0c1.5,1.5,3.2,2.5,5.1,3.1c4.3,1.4,9.2,0.3,12.6-3.1c0.9-0.9,1.7-2,2.3-3.1c2.4-4.7,1.7-10.6-2.3-14.6
	c-6.8-6.8-16.2-11-26.5-11c-20.7,0-37.5,16.8-37.5,37.5s16.8,37.5,37.5,37.5c10.4,0,19.7-4.2,26.5-11v0c4-4,4.7-9.9,2.3-14.6
	c-0.6-1.1-1.3-2.1-2.3-3.1c-3.4-3.4-8.3-4.4-12.6-3.1c-1.9,0.6-3.6,1.6-5.1,3.1l0,0l0,0c-2.3,2.3-5.4,3.7-8.8,3.7
	c-6.9,0-12.5-5.6-12.5-12.5S566.7,171.5,573.6,171.5z"/>
<path id="XMLID_1266_" fill="#FFCA50" d="M217.6,616.3c-2.4-5-3.8-10.5-3.8-16.4c0,10.9,0,23,0,25c0,2.2,0.5,4.2,1.5,6
	c0.6,1,1.3,2,2.1,2.8c0,0,0,0,0,0c1.6,1.6,3.7,2.8,6,3.3c0.9,0.2,1.9,0.3,2.8,0.3c1.7,0,3.4-0.3,4.9-1s2.8-1.5,4-2.7
	C227.5,630,221.3,623.8,217.6,616.3z"/>
<path id="XMLID_1258_" fill="#FFCA50" d="M251.4,612.5c-6.9,0-12.5-5.6-12.5-12.5c0-4.7,0-9.1,0-12.4c0,0,0,0,0-0.1
	c0-3.4,0-7.8,0-12.5c0-3.5-1.4-6.6-3.7-8.8c-2.3-2.3-5.4-3.7-8.8-3.7c-6.9,0-12.5,5.6-12.5,12.5c0,4.7,0,9.2,0,12.6
	c0,3.4,0,7.8,0,12.4c0,5.9,1.4,11.5,3.8,16.4c3.7,7.6,9.9,13.7,17.5,17.4c4.9,2.3,10.4,3.7,16.2,3.7c6.9,0,12.5-5.6,12.5-12.5
	S258.3,612.5,251.4,612.5z"/>
<g id="XMLID_1249_">
	<linearGradient id="XMLID_31_" gradientUnits="userSpaceOnUse" x1="238.8204" y1="647.4521" x2="238.8204" y2="599.9521">
		<stop  offset="0" style="stop-color:#1F3449;stop-opacity:0"/>
		<stop  offset="1" style="stop-color:#1F3449;stop-opacity:0.1"/>
	</linearGradient>
	<path id="XMLID_1250_" fill="url(#XMLID_31_)" d="M251.3,637.5c-5.8,0-11.3-1.3-16.2-3.7c-7.6-3.6-13.8-9.8-17.5-17.4
		c-2.4-5-3.8-10.5-3.8-16.4c0,2.9,0,6.4,0,10c0,5.9,1.4,11.5,3.8,16.4c3.7,7.6,9.9,13.7,17.5,17.4c4.9,2.3,10.4,3.7,16.2,3.7
		c6.9,0,12.5-5.6,12.5-12.5c0-1.8-0.4-3.5-1-5C260.8,634.4,256.4,637.5,251.3,637.5z"/>
</g>
<path id="XMLID_56_" fill="none" stroke="#FFCA50" stroke-width="5" stroke-miterlimit="10" d="M617.6,200.2
	c-2.4-5-3.8-10.5-3.8-16.4c0,10.9,0,23,0,25c0,2.2,0.5,4.2,1.5,6c0.6,1,1.3,2,2.1,2.8c0,0,0,0,0,0c1.6,1.6,3.7,2.8,6,3.3
	c0.9,0.2,1.9,0.3,2.8,0.3c1.7,0,3.4-0.3,4.9-1s2.8-1.5,4-2.7C627.5,214,621.4,207.8,617.6,200.2z"/>
<path id="XMLID_55_" fill="none" stroke="#FFCA50" stroke-width="5" stroke-miterlimit="10" d="M651.4,196.5
	c-6.9,0-12.5-5.6-12.5-12.5c0-4.7,0-9.1,0-12.4c0,0,0,0,0-0.1c0-3.4,0-7.8,0-12.5c0-3.5-1.4-6.6-3.7-8.8c-2.3-2.3-5.4-3.7-8.8-3.7
	c-6.9,0-12.5,5.6-12.5,12.5c0,4.7,0,9.2,0,12.6c0,3.4,0,7.8,0,12.4c0,5.9,1.4,11.5,3.8,16.4c3.7,7.6,9.9,13.7,17.5,17.4
	c4.9,2.3,10.4,3.7,16.2,3.7c6.9,0,12.5-5.6,12.5-12.5S658.3,196.5,651.4,196.5z"/>
<g id="XMLID_21512_">
	<linearGradient id="XMLID_32_" gradientUnits="userSpaceOnUse" x1="169.9631" y1="647.4521" x2="169.9631" y2="604.9521">
		<stop  offset="0" style="stop-color:#1F3449;stop-opacity:0"/>
		<stop  offset="1" style="stop-color:#1F3449;stop-opacity:5.000000e-02"/>
	</linearGradient>
	<path id="XMLID_21513_" fill="url(#XMLID_32_)" d="M200.1,626.5c-6.8,6.8-16.2,11-26.5,11c-19,0-34.7-14.2-37.2-32.5
		c-0.2,1.6-0.3,3.3-0.3,5c0,20.7,16.8,37.5,37.5,37.5c10.4,0,19.7-4.2,26.5-11v0c3.7-3.7,4.6-9.3,2.6-13.8
		C202.1,624,201.3,625.3,200.1,626.5L200.1,626.5z"/>
</g>
<path id="XMLID_54_" fill="#FCD829" stroke="#FCD829" stroke-miterlimit="10" d="M573.6,587.5c3.5,0,6.6,1.4,8.8,3.7l0,0l0,0
	c1.5,1.5,3.2,2.5,5.1,3.1c4.3,1.4,9.2,0.3,12.6-3.1c0.9-0.9,1.7-2,2.3-3.1c2.4-4.7,1.7-10.6-2.3-14.6c-6.8-6.8-16.2-11-26.5-11
	c-20.7,0-37.5,16.8-37.5,37.5s16.8,37.5,37.5,37.5c10.4,0,19.7-4.2,26.5-11v0c4-4,4.7-9.9,2.3-14.6c-0.6-1.1-1.3-2.1-2.3-3.1
	c-3.4-3.4-8.3-4.4-12.6-3.1c-1.9,0.6-3.6,1.6-5.1,3.1l0,0l0,0c-2.3,2.3-5.4,3.7-8.8,3.7c-6.9,0-12.5-5.6-12.5-12.5
	S566.7,587.5,573.6,587.5z"/>
<path id="XMLID_53_" fill="#FFCA50" d="M617.6,616.2c-2.4-5-3.8-10.5-3.8-16.4c0,10.9,0,23,0,25c0,2.2,0.5,4.2,1.5,6
	c0.6,1,1.3,2,2.1,2.8c0,0,0,0,0,0c1.6,1.6,3.7,2.8,6,3.3c0.9,0.2,1.9,0.3,2.8,0.3c1.7,0,3.4-0.3,4.9-1s2.8-1.5,4-2.7
	C627.5,630,621.3,623.8,617.6,616.2z"/>
<path id="XMLID_34_" fill="#FFCA50" d="M651.4,612.5c-6.9,0-12.5-5.6-12.5-12.5c0-4.7,0-9.1,0-12.4c0,0,0,0,0-0.1
	c0-3.4,0-7.8,0-12.5c0-3.5-1.4-6.6-3.7-8.8c-2.3-2.3-5.4-3.7-8.8-3.7c-6.9,0-12.5,5.6-12.5,12.5c0,4.7,0,9.2,0,12.6
	c0,3.4,0,7.8,0,12.4c0,5.9,1.4,11.5,3.8,16.4c3.7,7.6,9.9,13.7,17.5,17.4c4.9,2.3,10.4,3.7,16.2,3.7c6.9,0,12.5-5.6,12.5-12.5
	S658.3,612.5,651.4,612.5z"/>
<path id="XMLID_837_" fill="#FFCA50" d="M217.6,199.9c-2.4-5-3.8-10.5-3.8-16.4c0,10.9,0,23,0,25c0,2.2,0.5,4.2,1.5,6
	c0.6,1,1.3,2,2.1,2.8c0,0,0,0,0,0c1.6,1.6,3.7,2.8,6,3.3c0.9,0.2,1.9,0.3,2.8,0.3c1.7,0,3.4-0.3,4.9-1s2.8-1.5,4-2.7
	C227.5,213.6,221.3,207.5,217.6,199.9z"/>
<path id="XMLID_821_" fill="#FFCA50" d="M251.3,196.1c-6.9,0-12.5-5.6-12.5-12.5c0-4.7,0-9.1,0-12.4c0,0,0,0,0-0.1
	c0-3.4,0-7.8,0-12.5c0-3.5-1.4-6.6-3.7-8.8c-2.3-2.3-5.4-3.7-8.8-3.7c-6.9,0-12.5,5.6-12.5,12.5c0,4.7,0,9.2,0,12.6
	c0,3.4,0,7.8,0,12.4c0,5.9,1.4,11.5,3.8,16.4c3.7,7.6,9.9,13.7,17.5,17.4c4.9,2.3,10.4,3.7,16.2,3.7c6.9,0,12.5-5.6,12.5-12.5
	S258.2,196.1,251.3,196.1z"/>
<path id="XMLID_820_" fill="#FCD829" d="M173.7,171.1c3.5,0,6.6,1.4,8.8,3.7l0,0l0,0c1.5,1.5,3.2,2.5,5.1,3.1
	c4.3,1.4,9.2,0.3,12.6-3.1c0.9-0.9,1.7-2,2.3-3.1c2.4-4.7,1.7-10.6-2.3-14.6c-6.8-6.8-16.2-11-26.5-11c-20.7,0-37.5,16.8-37.5,37.5
	s16.8,37.5,37.5,37.5c10.4,0,19.7-4.2,26.5-11v0c4-4,4.7-9.9,2.3-14.6c-0.6-1.1-1.3-2.1-2.3-3.1c-3.4-3.4-8.3-4.4-12.6-3.1
	c-1.9,0.6-3.6,1.6-5.1,3.1l0,0l0,0c-2.3,2.3-5.4,3.7-8.8,3.7c-6.9,0-12.5-5.6-12.5-12.5S166.8,171.1,173.7,171.1z"/>
<g id="XMLID_793_">
	<linearGradient id="XMLID_33_" gradientUnits="userSpaceOnUse" x1="213.8452" y1="197.1838" x2="263.8452" y2="197.1838">
		<stop  offset="0" style="stop-color:#1F3449;stop-opacity:0"/>
		<stop  offset="1" style="stop-color:#1F3449;stop-opacity:0.1"/>
	</linearGradient>
	<path id="XMLID_795_" fill="url(#XMLID_33_)" d="M251.3,210.9c-5.8,0-11.3-1.3-16.2-3.7c-7.6-3.6-13.8-9.8-17.5-17.4
		c-2.4-5-3.8-10.5-3.8-16.4c0,2.9,0,6.4,0,10c0,5.9,1.4,11.5,3.8,16.4c3.7,7.6,9.9,13.7,17.5,17.4c4.9,2.3,10.4,3.7,16.2,3.7
		c6.9,0,12.5-5.6,12.5-12.5c0-1.8-0.4-3.5-1-5C260.9,207.8,256.5,210.9,251.3,210.9z"/>
</g>
<g id="XMLID_790_">
	<linearGradient id="XMLID_42_" gradientUnits="userSpaceOnUse" x1="136.1902" y1="199.6927" x2="203.8626" y2="199.6927">
		<stop  offset="0" style="stop-color:#1F3449;stop-opacity:0"/>
		<stop  offset="1" style="stop-color:#1F3449;stop-opacity:0.1"/>
	</linearGradient>
	<path id="XMLID_792_" fill="url(#XMLID_42_)" d="M200.2,200c-6.8,6.8-16.2,11-26.5,11c-19,0-34.7-14.2-37.2-32.5
		c-0.2,1.6-0.3,3.3-0.3,5c0,20.7,16.8,37.5,37.5,37.5c10.4,0,19.7-4.2,26.5-11v0c3.7-3.7,4.6-9.3,2.6-13.8
		C202.2,197.5,201.3,198.8,200.2,200L200.2,200z"/>
	<linearGradient id="XMLID_43_" gradientUnits="userSpaceOnUse" x1="161.1902" y1="169.6049" x2="203.8612" y2="169.6049">
		<stop  offset="0" style="stop-color:#1F3449;stop-opacity:0"/>
		<stop  offset="1" style="stop-color:#1F3449;stop-opacity:0.1"/>
	</linearGradient>
	<path id="XMLID_791_" fill="url(#XMLID_43_)" d="M173.7,170.9c3.5,0,6.6,1.4,8.8,3.7l0,0l0,0c1.5,1.5,3.2,2.5,5.1,3.1
		c4.3,1.4,9.2,0.3,12.6-3.1c0.9-0.9,1.7-2,2.3-3.1c1.7-3.4,1.9-7.3,0.4-10.8c-0.1,0.3-0.2,0.5-0.4,0.8c-0.6,1.1-1.3,2.1-2.3,3.1
		c-3.4,3.4-8.3,4.4-12.6,3.1c-1.9-0.6-3.6-1.6-5.1-3.1l0,0l0,0c-2.3-2.3-5.4-3.7-8.8-3.7c-6.9,0-12.5,5.6-12.5,12.5
		c0,1.8,0.4,3.5,1,5C164.2,174,168.6,170.9,173.7,170.9z"/>
</g>
<g id="XMLID_773_">
	<linearGradient id="XMLID_44_" gradientUnits="userSpaceOnUse" x1="238.8099" y1="231.075" x2="238.8099" y2="183.575">
		<stop  offset="0" style="stop-color:#1F3449;stop-opacity:0"/>
		<stop  offset="1" style="stop-color:#1F3449;stop-opacity:0.1"/>
	</linearGradient>
	<path id="XMLID_774_" fill="url(#XMLID_44_)" d="M251.3,221.1c-5.8,0-11.3-1.3-16.2-3.7c-7.6-3.6-13.8-9.8-17.5-17.4
		c-2.4-5-3.8-10.5-3.8-16.4c0,2.9,0,6.4,0,10c0,5.9,1.4,11.5,3.8,16.4c3.7,7.6,9.9,13.7,17.5,17.4c4.9,2.3,10.4,3.7,16.2,3.7
		c6.9,0,12.5-5.6,12.5-12.5c0-1.8-0.4-3.5-1-5C260.8,218,256.4,221.1,251.3,221.1z"/>
</g>
<g id="XMLID_770_">
	<linearGradient id="XMLID_45_" gradientUnits="userSpaceOnUse" x1="169.9911" y1="231.0839" x2="169.9911" y2="188.5839">
		<stop  offset="0" style="stop-color:#1F3449;stop-opacity:0"/>
		<stop  offset="1" style="stop-color:#1F3449;stop-opacity:0.1"/>
	</linearGradient>
	<path id="XMLID_771_" fill="url(#XMLID_45_)" d="M200.2,210.1c-6.8,6.8-16.2,11-26.5,11c-19,0-34.7-14.2-37.2-32.5
		c-0.2,1.6-0.3,3.3-0.3,5c0,20.7,16.8,37.5,37.5,37.5c10.4,0,19.7-4.2,26.5-11v0c3.7-3.7,4.6-9.3,2.6-13.8
		C202.2,207.7,201.3,209,200.2,210.1L200.2,210.1z"/>
</g>
</svg>
