<?xml version="1.0" encoding="utf-8"?>
<!-- Generator: Adobe Illustrator 19.0.0, SVG Export Plug-In . SVG Version: 6.00 Build 0)  -->
<svg version="1.1" id="Layer_1" xmlns="http://www.w3.org/2000/svg" xmlns:xlink="http://www.w3.org/1999/xlink" x="0px" y="0px"
	 viewBox="0 0 100 100" style="enable-background:new 0 0 100 100;" xml:space="preserve">
<g id="XMLID_42_">
	<path id="XMLID_10634_" style="fill:#FBAB2B;" d="M50,0C36.2,0,12.5,50.7,12.5,62.5C12.5,83.2,29.3,100,50,100
		c20.7,0,37.5-16.8,37.5-37.5C87.5,50.7,63.8,0,50,0z"/>
	<linearGradient id="XMLID_2_" gradientUnits="userSpaceOnUse" x1="12.5" y1="50" x2="87.5" y2="50">
		<stop  offset="0" style="stop-color:#FFFFFF;stop-opacity:0"/>
		<stop  offset="1" style="stop-color:#FFFFFF;stop-opacity:0.5"/>
	</linearGradient>
	<path id="XMLID_10621_" style="fill:url(#XMLID_2_);" d="M50,0C36.2,0,12.5,50.7,12.5,62.5C12.5,83.2,29.3,100,50,100
		c20.7,0,37.5-16.8,37.5-37.5C87.5,50.7,63.8,0,50,0z"/>
	<g id="XMLID_10640_">
		<linearGradient id="XMLID_43_" gradientUnits="userSpaceOnUse" x1="12.5" y1="79.3215" x2="87.5" y2="79.3215">
			<stop  offset="0" style="stop-color:#FFFFFF;stop-opacity:0"/>
			<stop  offset="1" style="stop-color:#FFFFFF;stop-opacity:0.5"/>
		</linearGradient>
		<path id="XMLID_10641_" style="fill:url(#XMLID_43_);" d="M50,90c-18.6,0-34.1-13.6-37-31.4c-0.3,1.5-0.5,2.8-0.5,3.9
			C12.5,83.2,29.3,100,50,100c20.7,0,37.5-16.8,37.5-37.5c0-1-0.2-2.3-0.5-3.9C84.1,76.4,68.6,90,50,90z"/>
	</g>
</g>
</svg>
